<?xml version="1.0" standalone="no"?><!DOCTYPE svg PUBLIC "-//W3C//DTD SVG 1.1//EN"
        "http://www.w3.org/Graphics/SVG/1.1/DTD/svg11.dtd">
<svg t="1585367341178" class="icon" viewBox="0 0 1024 1024" version="1.1" xmlns="http://www.w3.org/2000/svg" p-id="2240"
     xmlns:xlink="http://www.w3.org/1999/xlink" width="32" height="32">
    <defs>
        <style type="text/css"></style>
    </defs>
    <path d="M512 512m-512 0a512 512 0 1 0 1024 0 512 512 0 1 0-1024 0Z" fill="#CCCCCC" p-id="2241"></path>
    <path d="M484.844 511.908L318.91 345.974c-8.331-8.331-8.331-21.839 0-30.17 8.331-8.331 21.839-8.331 30.17 0l165.934 165.934L680.95 315.804c8.33-8.331 21.838-8.331 30.17 0 8.33 8.331 8.33 21.839 0 30.17L545.184 511.908 711.12 677.843c8.33 8.33 8.33 21.838 0 30.17-8.332 8.33-21.84 8.33-30.17 0L515.014 542.078 349.08 708.013c-8.331 8.33-21.839 8.33-30.17 0-8.331-8.332-8.331-21.84 0-30.17l165.934-165.935z"
          fill="#FFFFFF" p-id="2242"></path>
</svg>
